<svg xmlns="http://www.w3.org/2000/svg" viewBox="0 0 1920 1080"><defs><style>.a{fill:#4d4d4d;}.b{fill:#262626;}</style></defs><rect class="a" width="1920" height="1080"/><path class="b" d="M1020.92606,605.62486v19.97507a18.91176,18.91176,0,0,1-18.91176,18.91176H886.57175A18.91176,18.91176,0,0,1,867.66,625.59993V615.15455a18.91178,18.91178,0,0,1,5.5405-13.374l13.28723-13.28448a18.91175,18.91175,0,0,1,26.74547.003l1.3374,1.33772a18.91178,18.91178,0,0,0,26.74687.00157l22.45509-22.45513a18.91177,18.91177,0,0,1,26.74527,0l24.8691,24.86906A18.91176,18.91176,0,0,1,1020.92606,605.62486Z"/><path class="b" d="M836.37469,485.37468v165.007a25.41575,25.41575,0,0,0,25.41575,25.41575h165.007a25.41575,25.41575,0,0,0,25.41575-25.41575v-165.007a25.41575,25.41575,0,0,0-25.41575-25.41575h-165.007A25.41575,25.41575,0,0,0,836.37469,485.37468Zm175.619,175.619H876.59417a25.41576,25.41576,0,0,1-25.41576-25.41576V500.17841a25.41575,25.41575,0,0,1,25.41576-25.41575h135.39952a25.41575,25.41575,0,0,1,25.41575,25.41575V635.57793A25.41575,25.41575,0,0,1,1011.99369,660.99369Z"/><circle class="b" cx="896.58873" cy="532.57505" r="23.31173"/></svg>