<svg xmlns="http://www.w3.org/2000/svg" viewBox="0 0 225.51188 292.04332"><defs><style>.a{fill:red;}</style></defs><path class="a" d="M314.259,205.60283a33.59943,33.59943,0,1,0,33.60239,33.60154A33.63769,33.63769,0,0,0,314.259,205.60283Z" transform="translate(-201.50558 -131.85612)"/><path class="a" d="M314.26152,131.85612A112.75592,112.75592,0,0,0,201.50558,244.61206c0,53.09814,81.97691,149.15634,106.13292,176.30969a8.8534,8.8534,0,0,0,13.24519,0C345.04055,393.7684,427.01746,297.7102,427.01746,244.61206A112.75592,112.75592,0,0,0,314.26152,131.85612ZM314.259,294.95187a55.74962,55.74962,0,1,1,55.75258-55.7475A55.81382,55.81382,0,0,1,314.259,294.95187Z" transform="translate(-201.50558 -131.85612)"/></svg>